<svg width="1365.333" height="1365.333" xmlns="http://www.w3.org/2000/svg"><defs><path id="prefix__a" d="M403.394 975.378h548.303v136.646H403.394z"/></defs><path fill="#d9dbdd" d="M0 0h1365.336v1365.335H0z"/><g transform="translate(2.716)"><circle cx="681.21" cy="489.744" r="161.988" fill="#1c1e1f" stroke="#1c1e1f" stroke-width="13.703" stroke-linecap="round" stroke-linejoin="round"/><path d="M484 892.297c0-7.403 1.006-9.057 13.51-22.209 45.836-48.212 66.345-107.872 47.388-137.853-2.327-3.68-5.29-8.603-6.584-10.938l-2.352-4.246-7.529 10.475c-14.276 19.86-18.009 24.676-18.639 24.046-1.216-1.216 8.604-19.279 14.71-27.057 3.388-4.317 6.161-9.192 6.162-10.833.003-8.692 12.934-43.63 17.102-46.205.797-.493 1.073-1.875.614-3.072-.517-1.347-.299-1.844.574-1.305.775.479 2.226-.138 3.226-1.37 1.565-1.93 1.54-2.072-.182-1.02-1.1.673-2.939 1.07-4.086.881-1.223-.2-11.433 9.453-24.667 23.32-12.419 13.014-24.38 25.507-26.58 27.763-2.2 2.255-6.25 6.734-9 9.953-7.526 8.81-6.032 4.73 3.687-10.068 4.778-7.274 9.079-14.126 9.558-15.226.478-1.1 2.46-4.4 4.405-7.333 11.069-16.7 22.092-38.087 23.426-45.451l.946-5.216-9.864 9.334c-10.377 9.82-14.926 13.84-25.829 22.823-6.69 5.513-10.694 8.426-28.035 20.393-5.155 3.557-10.173 7.432-11.151 8.61-.978 1.18-2.315 1.813-2.971 1.408-.656-.406 3.853-5.95 10.019-12.32s13.22-14.025 15.676-17.013c2.456-2.987 6.566-7.999 9.133-11.137 7.418-9.068 28.087-39.121 27.388-39.82-.35-.35-4.87 1.995-10.044 5.21s-13.315 8.058-18.091 10.762c-4.776 2.703-12.112 7.232-16.302 10.064-4.19 2.832-11.218 7.162-15.618 9.622s-9.8 5.49-12 6.731c-16.605 9.37-20.192 11.01-15.51 7.091 7.85-6.572 31.197-27.404 40.177-35.851 4.766-4.484 14.835-13.722 22.374-20.528 26.345-23.783 23.637-23.586-31.708 2.309-55.05 25.756-60.888 27.417-35.927 10.217 7.373-5.081 16.823-11.677 21-14.658s13.594-9.531 20.927-14.556c34.138-23.39 36.19-28.664 7.234-18.585-38.013 13.231-80.964 26.609-82.025 25.548-.28-.281 3.232-2.264 7.807-4.406s11.506-5.891 15.403-8.333c3.896-2.441 14.996-8.23 24.666-12.865 12.207-5.85 21.658-11.582 30.915-18.746l13.334-10.32-9.518.908c-5.235.499-16.335 2.32-24.667 4.046-8.332 1.726-19.649 4.069-25.149 5.205-16.147 3.337-39.676 7.524-42.268 7.523-3.601-.001 19.527-10.093 37.15-16.21 26.561-9.22 64.113-31.547 50.278-29.895-45.489 5.434-54.314 6.112-78.207 6.016-25.378-.103-25.138-.531 3.714-6.623 11.367-2.4 25.767-6.125 32-8.28 6.233-2.153 19.087-5.52 28.563-7.483 22.755-4.713 21.991-8.169-2.563-11.594-3.667-.511-11.767-2.065-18-3.453-34.685-7.72-43.09-9.28-54-10.018-35.36-2.392-.071-4.99 49.886-3.673 48.119 1.268 55.45-.798 26.78-7.549-3.3-.777-8.1-1.94-10.666-2.584-2.567-.644-15.167-3.363-28-6.041-12.833-2.679-29.033-6.16-36-7.737l-12.667-2.866 25.334-.797c13.933-.438 37.926-.332 53.317.234 15.39.567 28.282.733 28.646.368 2.578-2.577-32.37-19.656-53.963-26.372-40.789-12.685-49.74-18.587-21.487-14.166 4.484.702 13.253 1.954 19.487 2.783 13.252 1.764 41.064 8.204 53.01 12.277 19.026 6.486 9.995-5.916-14.764-20.275-2.335-1.355-11.565-6.691-20.51-11.86-21.183-12.237-41.736-25.549-41.736-27.03 0-1.536-.74-1.741 10.666 2.955 12.122 4.99 29.309 10.973 53.334 18.569 9.9 3.13 21.433 7.404 25.628 9.498 11.967 5.972 14.09 4.265 5.206-4.187-8.802-8.373-52.73-43.464-64.41-51.453-13.255-9.067-12.398-8.358-11.365-9.39.461-.461 3.555.439 6.875 2 3.32 1.56 6.393 2.837 6.83 2.837.436 0 12.892 6.074 27.68 13.497 27.955 14.033 56.928 26.908 58.042 25.794.354-.354-4.41-5.896-10.588-12.316a3154.817 3154.817 0 01-19.998-20.99c-4.822-5.125-17.287-17.653-27.701-27.84-20.037-19.6-22.546-23.232-9.928-14.374 4.25 2.984 18.229 12.423 31.062 20.976 22.738 15.153 37.174 25.451 38.806 27.682.444.606 2.62.908 4.837.67l4.03-.432-7.88-12.667c-4.334-6.967-8.268-13.567-8.744-14.667-.796-1.844-4.664-7.141-22.39-30.666-6.316-8.382-16.906-21.453-20.326-25.086-.916-.975-1.666-2.472-1.666-3.33 0-.856 1.433-.063 3.185 1.763 5.576 5.813 18.709 17.778 26.586 24.223 8.405 6.878 23.704 20.471 40.095 35.627 14.013 12.956 14.462 11.546 3.777-11.864-2.51-5.5-5.48-12.269-6.599-15.042-1.119-2.774-5.644-11.774-10.056-20-4.412-8.227-8.952-16.758-10.09-18.958-1.137-2.2-4.532-7.608-7.543-12.018-3.011-4.41-5.948-8.91-6.525-10-2.832-5.344 36.14 38.46 54.007 60.703 7.06 8.79 14.2 17.182 15.864 18.648l3.027 2.667-.832-5.333c-.818-5.244-11.964-36.534-24.223-68-11.18-28.692-11.696-31.562-3.419-18.976 9.604 14.602 26.11 40.758 32.627 51.703 8.302 13.94 14.389 22.54 15.981 22.578 3.899.092-2.273-35.523-11.202-64.639a2390.133 2390.133 0 01-4.225-13.913c-.75-2.519-2.146-5.819-3.102-7.333-2.689-4.26-4.203-12.97-1.637-9.42 3.79 5.243 14.034 22.913 21.643 37.333 9.796 18.565 25.819 45.734 27.63 46.854 1.523.941 1.077-4.622-3.006-37.52-3.552-28.622-3.867-30.668-6.826-44.287-4.885-22.492-2.925-21.647 6.848 2.953 3.365 8.47 14.187 37.308 20.015 53.333 11.541 31.74 12 30.246 12-39.134 0-48.522.753-49.78 7.308-12.199 1.087 6.233 2.899 15.533 4.026 20.667A1444.158 1444.158 0 01661.283 248c1.895 9.232 8.08 29.863 9.333 31.134 1.895 1.921 2.48-2.446 6.035-45.134 4.899-58.815 5.435-59.285 10.642-9.333 6.455 61.934 8.03 66.648 13.37 40 1.175-5.867 4.482-20.335 7.349-32.152s5.847-25.462 6.624-30.323c1.388-8.688 3.697-15.525 5.245-15.526.432 0 .59 22.35.352 49.667-.28 32.094.024 49.195.86 48.334.71-.734 2.836-5.665 4.723-10.958 12.057-33.834 32.19-84.376 33.611-84.376.791 0 .48 2.045-4.766 31.334-5.164 28.826-8.312 53.399-7.773 60.666l.445 6 5.039-6.666c2.77-3.667 8.547-13.89 12.837-22.72 4.289-8.829 9.894-19.329 12.455-23.333 2.56-4.004 7.517-13.28 11.013-20.614 6.744-14.148 8.639-15.33 5.308-3.315-13.679 49.349-22.498 89.408-19.652 89.265 1.618-.082 9.627-10.881 17.592-23.719 4.075-6.567 12.847-19.955 19.493-29.752 6.647-9.797 13.722-20.662 15.723-24.146 4.57-7.956 5.084-7.956 2.701 0-2.82 9.42-16.73 46.762-21.247 57.042-3.802 8.651-10.477 36.625-8.739 36.625.465 0 4.29-4.35 8.5-9.667 16.977-21.44 46.435-57.455 55.9-68.34 5.172-5.95 5.034-3.517-.285 5.007-7.664 12.283-21.377 38.32-24.753 47-.856 2.2-4.93 12.097-9.054 21.994-10.393 24.944-10.275 25.462 2.875 12.518 19.166-18.867 50.05-48.183 67.637-64.204 1.099-1-2.783 4.649-19.945 29.025-18.698 26.558-39.108 60.735-37.331 62.511.986.986 50.207-33.612 63.484-44.624 18.924-15.694 22.81-16.098 8.775-.912-4.588 4.964-12.83 14.125-18.314 20.359-5.486 6.233-10.774 11.836-11.753 12.452-2.273 1.429-30.955 35.963-30.361 36.556.692.692 27.107-11.254 36.769-16.628 22.748-12.653 62.667-32.026 62.667-30.413 0 .272-4.35 3.357-9.667 6.856-10.443 6.873-16.408 11.434-31.18 23.843-5.238 4.4-11.833 9.8-14.655 12-2.823 2.2-7.54 6.141-10.482 8.758-2.942 2.616-7.45 6.185-10.016 7.93-9.269 6.301-15.063 14.138-8.334 11.27 1.284-.547 15.834-5.631 32.334-11.299 16.5-5.667 32.4-11.344 35.333-12.614 2.933-1.27 6.833-2.801 8.667-3.402 1.833-.601 8.391-3.234 14.573-5.85 13.323-5.638 14.988-5.347 5.219.912-29.516 18.911-44.416 28.233-68.215 42.68-8.2 4.979-16.11 10.297-17.577 11.819L878 424.304l8.667-.916c4.766-.503 13.466-1.985 19.333-3.293 11.882-2.648 21.496-4.648 54.667-11.372 12.466-2.527 24.166-5.005 26-5.507 6.946-1.901.454 1.94-11.334 6.707-6.6 2.669-13.8 5.692-16 6.718-2.2 1.026-7.3 3.095-11.333 4.597-7.496 2.793-32.288 12.785-48.213 19.43-4.884 2.039-10.584 5.147-12.667 6.908l-3.787 3.202 50-.767c27.5-.422 52.85-1.104 56.334-1.514 11.999-1.415 6.307 1.691-7.334 4.002-14.522 2.461-23.623 4.39-57.666 12.217-11.734 2.698-24.816 5.673-29.072 6.611-4.257.938-8.053 2.02-8.437 2.404-3.065 3.065 61.02 8.736 100.587 8.9 12.647.053 8.909 2.007-7.34 3.837l-25.738 2.898c-6.234.702-23.334 2.5-38 3.996-14.667 1.496-27.267 2.934-28 3.196-4.428 1.578 21.056 9.228 50.666 15.209l28 5.654c33.193 6.703 34.297 6.45-27 6.17-30.984-.142-56.334-.097-56.334.1.005 2.578 53.846 25.113 82.662 34.597 18.102 5.958 19.592 6.57 18.546 7.616-1.075 1.075-41.616-5.119-65.207-9.961-10.67-2.19-35.89-5.493-38.313-5.018-3.438.676 6.251 6.97 26.313 17.096 9.167 4.626 22.367 11.74 29.333 15.807 6.967 4.068 15.067 8.666 18 10.219 25.003 13.234 23.712 13.078-28-3.381-21.568-6.865-49.806-13.348-58-13.316-1.1.004 1.9 2.516 6.667 5.582 22.199 14.28 43.395 28.284 44 29.069.367.476 4.567 3.485 9.333 6.686 31.867 21.4 30.436 23.553-4.442 6.69-29.461-14.242-49.94-21.83-62.891-23.303l-8-.909 11.333 7.611c20.288 13.626 54.186 45.644 63.474 59.955l2.526 3.892-4.469-3.312c-27.284-20.215-39.111-27.83-56.214-36.192-14.395-7.038-24.753-10.513-23.757-7.97.242.618 5.048 6.163 10.68 12.32 16.234 17.752 28.135 32.34 36.08 44.225 2.009 3.006 4.129 5.804 4.71 6.219 1.047.745 9.653 12.533 11.504 15.754 1.981 3.45-.564 1.348-11.389-9.401-13.652-13.558-21.038-19.497-35.764-28.755-6.26-3.936-14.08-9.387-17.38-12.114-19.458-16.079-21.372-12.71-5.266 9.27 5.993 8.178 5.86 7.98 19.74 29.333 8.707 13.394 14.405 23.538 19.285 34.331 2.203 4.874-.023 4.985-2.525.126-4.091-7.946-17.217-23.177-35.235-40.885-13.223-12.997-23.022-19.2-32.666-20.681l-5.334-.819 5.353 4.964c2.944 2.73 7.14 7.364 9.326 10.297 2.185 2.934 4.307 5.634 4.716 6 1.564 1.405 5.272 12.923 5.272 16.378 0 1.992.56 3.622 1.245 3.622s5.25 7.95 10.144 17.667c4.895 9.717 10.662 20.288 12.818 23.493 2.155 3.204 3.718 6.026 3.474 6.27-2.123 2.124-20.275-21.256-25.438-32.763-2.581-5.754-2.73-5.86-3.617-2.589-3.712 13.685-12.59 19.552-19.61 12.957-2.664-2.502-3.345-2.66-4.365-1.009-.885 1.432-.33 2.417 2.07 3.675 1.803.945 3.279 2.202 3.279 2.795 0 .592 1.468 11.6 3.262 24.463 5.432 38.934 17.348 63.947 48.773 102.375C870.719 875.732 884 895.074 884 897.569c0 .604-90 1.098-200 1.098H484zm203.647-18.705c2.373-4.91 9.165-14.625 15.093-21.592 29.252-34.375 39.2-55.656 41.634-89.07l1.487-20.403-5.579-4.93c-3.068-2.712-7.387-7.263-9.597-10.114-4.644-5.99-5.332-4.528-1.18 2.509 3.493 5.92 2.9 12.147-2.728 28.675-5.411 15.89-8.11 25.233-8.11 28.074 0 1.34-.688 2.86-1.528 3.38-2.335 1.442 2.17-36.645 4.523-38.25.642-.438.966-3.738.72-7.333-.415-6.066-.526-6.25-1.541-2.538-.602 2.2-2.191 6.446-3.532 9.435-2.319 5.17-3.581 9.29-9.297 30.352-1.36 5.016-2.82 9.466-3.243 9.889-.754.753-1.381-7.05-.779-9.676.822-3.576 1.266-33.476.532-35.788-1.538-4.848-2.884.529-2.95 11.788-.034 5.867-.356 11.867-.715 13.333-.36 1.467-.75 3.267-.867 4-.69 4.307-3.836-16.534-3.925-26-.073-7.836-.505-10.716-1.398-9.333-1.595 2.467-1.682-10.92-.132-20.333 1.131-6.874.073-7.9-4.178-4.053-1.73 1.565-2.808 1.816-3.438.8-4.737-7.631-12.205-1.216-12.232 10.507-.01 4.907-.662 9.318-1.446 9.803-.784.484-1.326 3.07-1.204 5.745.122 2.675.118 6.964-.009 9.531l-.23 4.667L669.92 752c-1.715-4.264-1.807-3.287-1.074 11.333l.803 16-2.623-3.333c-1.443-1.833-3.012-5.733-3.486-8.667-.886-5.476-1.616-9.37-3.5-18.666l-1.08-5.334-.147 6.225c-.175 7.443-1.258 10.736-3.147 9.569-.919-.568-1.058.448-.412 3.007 1.492 5.908 4.742 24.882 4.744 27.696.008 10.297-19.482-28.893-26.102-52.487-4.423-15.763-11.862-7.73-15.301 16.524-4.009 28.273 11.586 64.748 42.811 100.133 3.883 4.4 10.015 12.65 13.627 18.333 7.877 12.394 7.262 12.333 12.615 1.259zM834.333 855c-.885-2.017-3.572-7.068-5.971-11.224-2.4-4.157-4.362-8.464-4.362-9.572 0-1.107-.847-2.861-1.883-3.897-2.2-2.2-8.954-21.814-13.42-38.974-2.606-10.01-3.275-11.404-4.036-8.409-.502 1.975-.48 4.289.046 5.142.528.853 3.232 9.137 6.01 18.409 6.514 21.746 7.3 23.706 15.726 39.192 6.454 11.863 11.752 18.13 7.89 9.333zm-125-185.65c58.365-9.907 103.95-41.064 133.646-91.35 46.312-78.422 22.094-185.625-53.655-237.51-16.713-11.448-25.955-16.023-51.288-25.39-26.346-9.741-71.795-10.99-102.703-2.822-43.684 11.544-85.67 41.183-107.803 76.102-10.407 16.417-20.942 40.525-24.308 55.62a499.368 499.368 0 01-1.366 6c-3.566 14.586-4.619 50.15-1.914 64.667 2.5 13.415 8.158 33.69 12.254 43.907 12.788 31.893 43.715 67.945 73.137 85.256a1376.164 1376.164 0 0113.334 7.957c3.3 2.004 8.1 4.329 10.666 5.167 2.567.838 7.367 2.534 10.667 3.768 8.697 3.252 22.26 7.083 28.55 8.063 2.998.467 8.45 1.306 12.117 1.866 12.463 1.9 33.041 1.35 48.666-1.302z" fill="#d7b193"/><path d="M484.793 897.538c-2.763-4.471 1.724-15.157 10.01-23.837 14.359-15.04 15.422-16.28 22.62-26.368 10.771-15.093 14.145-20.416 18.173-28.666 19.353-39.642 22.3-67.253 9.32-87.334-2.37-3.666-5.452-8.861-6.85-11.544l-2.54-4.878-2.192 2.878c-1.206 1.583-5.071 6.955-8.59 11.939-3.52 4.984-6.692 8.768-7.05 8.41-.359-.359 2.664-5.357 6.716-11.107 5.8-8.231 7.684-12.195 8.85-18.63 3.578-19.729 10.948-36.255 20.597-46.183 4.874-5.015 5.537-6.218 3.427-6.218-1.44 0-2.617.533-2.617 1.185s-1.997 1.56-4.437 2.017c-4.067.763-30.903 26.402-48.316 46.162-2.247 2.55-5.484 5.836-7.194 7.303l-3.108 2.666 1.695-3.333c.932-1.833 2.985-5.133 4.562-7.333 3.515-4.902 11.297-17.91 15.555-26 1.737-3.3 3.843-6.9 4.68-8 3.32-4.363 9.85-17.567 11.034-22.311 3.805-15.244 3.887-15.206-7.456-3.44-10.831 11.235-28.346 26.157-39.682 33.808-7.145 4.822-7.19 4.855-13.526 9.923-5.2 4.16-6.608 4.313-3.232.353 22.414-26.29 53.425-67.436 53.425-70.884 0-1.13-9.141 3.607-18.415 9.544-6.573 4.207-17.199 10.492-26.252 15.527-1.467.816-5.367 3.348-8.667 5.627-11.754 8.119-25.237 13.838-19.52 8.281 20.648-20.074 34.327-32.976 43.496-41.027 26.467-23.241 23.358-26.043-11.014-9.927-11.895 5.578-25.828 11.897-30.962 14.041-5.133 2.145-11.133 4.75-13.333 5.79-18.79 8.879-18.763 8.868-16 6.117 2.567-2.557 7.898-6.388 47.333-34.012 40.185-28.15 34.956-33.004-14-12.998-9.28 3.793-43.556 13.81-44.392 12.973-1.03-1.03 13.47-9.463 31.726-18.449 9.9-4.873 19.8-10.44 22-12.373 2.2-1.932 7.75-6.202 12.333-9.489 14.229-10.202 8.34-10.8-29.667-3.008-23.028 4.722-47.098 9.164-49.98 9.225-2.626.056 5.344-4.082 15.314-7.949 14.321-5.556 35.92-15.075 39.333-17.335 1.833-1.214 6.333-3.568 10-5.23 24.133-10.94 23.655-14.523-1.552-11.635-34.482 3.95-49.092 5.028-62.448 4.61-15.12-.475-16.141.094 13.333-7.43 8.8-2.247 19.3-5.299 23.334-6.782 4.033-1.483 13.933-3.96 22-5.504 17.757-3.4 28.527-8.036 18.666-8.036-1.1 0-2-.535-2-1.188 0-.653-1.95-1.523-4.333-1.933-2.383-.41-9.133-1.647-15-2.748-9.968-1.872-14.584-2.852-38.667-8.214-5.133-1.142-14.003-2.861-19.711-3.82-5.708-.958-10.786-2.15-11.284-2.648-.498-.498 19.472-.728 44.378-.511 54.04.471 63.394-2.087 32.716-8.948-4.087-.914-11.932-2.871-17.432-4.349-5.5-1.477-21.7-5.001-36-7.83l-26-5.145 20-.76c11-.418 32.6-.328 48 .202 37.642 1.293 38.622-.799 7.333-15.649-16.403-7.785-14.374-6.998-41-15.905-19.483-6.518-30.443-11.597-20-9.27 1.65.368 9.3 1.314 17 2.103 15.732 1.61 42.766 7.36 60.417 12.848 11.695 3.636 14.13 3.433 14.23-1.187.071-3.336-28.85-22.834-54.293-36.604-8.655-4.685-28.488-18.088-27.792-18.783.281-.282 1.62.097 2.975.842 4.287 2.356 19.247 7.718 35.797 12.828 24.82 7.665 31.28 9.959 41.354 14.686 25.71 12.064 19.696 3.022-18.688-28.093-8.066-6.54-15.866-12.99-17.333-14.334-1.467-1.344-7.319-5.8-13.005-9.902-5.685-4.101-10.068-7.726-9.74-8.055.598-.597 5.086 1.48 45.412 21.017 23.347 11.311 26.665 12.826 39 17.801 10.56 4.26 10.453 3.094-.807-8.798-5.026-5.31-11.176-12.024-13.666-14.923-2.49-2.898-15.027-15.732-27.86-28.52-12.834-12.788-22.019-22.417-20.412-21.397 2.692 1.707 58.378 39.32 64.89 43.83 1.57 1.087 3.334 2.737 3.92 3.667.587.93 3.437 1.69 6.334 1.69 5.227 0 6.38-.966 4.06-3.4-.665-.697-2.385-3.367-3.822-5.934-6.392-11.409-17.521-28.678-23.64-36.682-18.448-24.133-22.585-29.354-23.58-29.762-.596-.245-1.084-1.116-1.084-1.937s2.25.67 5 3.312c2.75 2.643 8.653 7.715 13.117 11.27 8.75 6.97 23.74 20.317 41.328 36.8 16.706 15.655 17.468 14.279 6.388-11.53-9.292-21.641-25.042-52.72-31.68-62.512-4.055-5.982-1.732-5.403 2.988.744 2.377 3.097 6.874 8.33 9.991 11.63 5.909 6.255 21.521 24.65 34.513 40.667 12.93 15.94 15.258 18.442 16.01 17.202 1.182-1.947-3.612-18.84-10.982-38.696-8.657-23.328-17.13-45.704-18.62-49.172-1.74-4.053-2.694-7.334-2.132-7.334.723 0 34.584 53.09 37.418 58.667 20.736 40.804 19.8.927-1.5-63.826-1.053-3.204-2.52-6.954-3.257-8.333-.739-1.38-1.034-2.508-.656-2.508s1.969 2.55 3.536 5.667 3.604 6.567 4.527 7.667c.923 1.1 5.447 9.2 10.054 18 11.864 22.663 14.035 26.542 19.997 35.716 2.911 4.481 5.293 8.621 5.293 9.2 0 1.532 4.39 6.417 5.765 6.417 1.917 0-4.806-59.502-9.24-81.778-1.144-5.745-1.81-10.714-1.481-11.043.611-.612 1.076.459 6.73 15.488 1.794 4.766 6.034 15.866 9.424 24.666 3.39 8.8 8.709 22.9 11.82 31.334 9.847 26.685 11.238 22.033 11.563-38.667.205-38.363 1.641-44.94 4.6-21.07 1.672 13.485 12.358 58.227 15.962 66.833 4.329 10.334 5.124 7.127 8.869-35.763 4.249-48.667 4.205-48.301 5.397-45.333.589 1.466 1.117 5.366 1.173 8.666.168 9.823 7.95 69.697 9.574 73.667 3.424 8.366 4.463 4.954 21.211-69.667l3.741-16.666.113 46.921c.14 58.633-.027 58.372 13.522 21.079 8.225-22.64 19.643-51.633 22.841-58l2.344-4.667-.718 4.667c-.395 2.566-1.525 8.866-2.512 14-5.713 29.716-9.015 55.777-8.448 66.666l.417 8 7.175-10c3.946-5.5 9.867-15.7 13.157-22.666 3.29-6.967 8.607-17.002 11.817-22.3 3.21-5.297 7.686-13.097 9.946-17.333 2.26-4.235 3.72-6.2 3.243-4.367-7.593 29.2-16.093 63.886-18.463 75.333-2.554 12.34-.97 14.702 5.315 7.921C781.13 294.748 792 279.07 792 278c0-.263 2.55-4.21 5.667-8.77 3.116-4.562 10.916-16.116 17.333-25.676 6.417-9.56 11.667-16.864 11.667-16.23 0 1.966-8.25 23.939-9.492 25.276-.646.697-1.175 2.092-1.175 3.1 0 1.48-6.316 18.927-11.933 32.967-.928 2.319-3.598 13.413-5.996 24.918-1.793 8.6 3.91 3.428 20.864-18.918 1.948-2.567 4.934-6.295 6.636-8.286 1.703-1.99 7.896-9.445 13.762-16.567 5.867-7.12 12.98-15.392 15.807-18.38l5.14-5.434-2.706 4.667c-3.398 5.86-18.907 36.906-18.907 37.848 0 .384-1.742 4.476-3.87 9.092-19.89 43.136-18.874 45.512 8.137 19.04 25.837-25.321 51.22-48.646 48.95-44.98-1.023 1.65-2.314 3-2.871 3-.557 0-1.016.75-1.02 1.666-.003.917-1.803 3.584-4 5.928-2.196 2.344-3.996 4.744-3.999 5.333-.003.59-2.327 4.135-5.165 7.878-6.084 8.024-27.617 43.765-31.849 52.861-4.414 9.492-5.969 10.277 32.353-16.336 11-7.638 24.5-17.694 30-22.346 14.257-12.057 18.486-13.642 7.999-2.996-.368.373-4.568 5.178-9.333 10.678-4.766 5.5-13.245 14.8-18.842 20.667-5.597 5.867-13.028 14.267-16.513 18.667-3.486 4.4-8.478 10.249-11.093 12.998-10.369 10.898 2.08 7.931 30.077-7.168 5.705-3.077 18.472-9.761 28.372-14.854 26.87-13.823 29.319-14.453 15.632-4.021-8.481 6.464-20.935 16.65-39.586 32.378-5.653 4.767-13.086 10.612-16.519 12.99-5.544 3.839-10.252 10.068-8.744 11.568.303.301 14.65-4.201 31.884-10.005 28.64-9.645 35.55-12.167 55.13-20.115 9.306-3.778 8.998-2.185-.719 3.714a700.39 700.39 0 00-16.614 10.478c-10.326 6.76-30.826 19.566-34.415 21.5-36.952 19.9-32.783 23.05 16.618 12.555 10.633-2.26 24.433-5.009 30.666-6.11 6.234-1.102 13.434-2.579 16-3.282 5.861-1.605 9.713-1.653 8.758-.107-.403.652-2.367 1.596-4.366 2.097-1.998.502-6.053 1.996-9.012 3.32-2.959 1.326-11.08 4.62-18.046 7.32-6.967 2.7-13.867 5.412-15.334 6.026-1.466.613-8.066 3.352-14.666 6.085-18.974 7.858-31.334 14.675-31.334 17.282 0 .562 22.35.67 49.667.24 51.245-.805 52.54-.607 28.333 4.339-7.333 1.498-17.233 3.625-22 4.726-8.844 2.043-16.334 3.732-38.559 8.695-13.292 2.97-14.774 3.502-14.774 5.309 0 2.403 47.814 7.954 70.505 8.186 27.786.284 32.826 1.58 14.162 3.643-8.8.972-22.6 2.585-30.667 3.585s-22.467 2.51-32 3.355c-9.533.846-18.213 2.025-19.288 2.62-4.86 2.687 24.761 11.937 57.955 18.096 6.6 1.225 18 3.623 25.333 5.328l13.333 3.1-51-.269c-28.05-.148-51 .21-51 .793 0 1.208 32.548 16.977 40.667 19.703 2.933.985 5.994 2.266 6.802 2.846 1.934 1.388 16.19 6.728 35.198 13.185 16.943 5.756 14.205 6.174-11.333 1.73l-33.334-5.791c-12.466-2.165-27.466-4.306-33.333-4.758l-10.667-.82 3.334 2.697c8.018 6.49 11.157 8.364 31.762 18.957 11.969 6.154 22.769 11.805 24 12.557 1.23.752 6.738 3.875 12.238 6.94 19.085 10.634 18.146 11.248-5.334 3.483-14.48-4.789-39.5-11.882-48-13.608-35.538-7.22-35.351-6.534 4.997 18.328 5.132 3.162 20.132 13.625 40.67 28.368 8.651 6.21 10.24 9.345 2.667 5.263C907.337 613.635 870.319 600 854.4 600c-4.054 0-3.39.659 8.943 8.87 18.088 12.041 45.044 36.416 56.856 51.412l4.468 5.672L920 662.72c-2.567-1.777-7.967-5.707-12-8.733-16.249-12.19-48.361-28.944-58.456-30.5-6.971-1.074-6.86-.35 1.253 8.115 12.924 13.485 34.153 39.27 42.452 51.56 1.054 1.56 3.454 4.565 5.334 6.676 3.234 3.634 3.256 3.757.417 2.287-1.65-.854-3-2.026-3-2.604 0-.578-3.15-3.55-7-6.605-3.85-3.056-7.6-6.046-8.334-6.645-.734-.6-7.034-4.908-14-9.575-6.967-4.667-17.166-11.888-22.666-16.047-13.886-10.499-24.685-15.37-18.207-8.212 1.214 1.341 2.207 3.051 2.207 3.8 0 .75 1.92 4.002 4.265 7.229 2.346 3.226 7.435 10.666 11.308 16.533 3.873 5.867 7.504 11.267 8.068 12 11.384 14.797 24.374 38.961 15.41 28.667C845.214 685.584 819.41 664 811.264 664c-1.54 0-7.174-1.529-12.522-3.397-12.307-4.3-13.602-3.326-2.487 1.87 13.24 6.191 25.333 19.066 29.52 31.431 6.916 20.42-6.767 47.927-17.967 36.119-3.725-3.927-4.573-4.092-5.716-1.114-.56 1.461.263 3.203 2.362 5 2.691 2.303 3.46 4.734 4.67 14.758 3.179 26.35 5.52 37.65 10.224 49.333 8.886 22.072 24.018 46.27 42.016 67.185 5.924 6.885 11.933 14.794 13.352 17.576 1.419 2.782 3.15 5.41 3.848 5.842 1.834 1.133 5.287 8.436 4.406 9.317-1.225 1.225-397.418.845-398.176-.382zm199.797-17.042c1.282-5.108 9.143-16.971 19.324-29.163 30.324-36.312 40.02-57.619 41.1-90.315l.648-19.648-6.865-6.173c-9.672-8.696-13.621-15.998-14.487-26.791-.682-8.488-4.31-9.662-4.31-1.395 0 1.897-.646 2.297-2.673 1.654-1.777-.564-2.943-.147-3.476 1.243-.964 2.51-13.851 3.061-13.851.592 0-1.008-1.42-1.173-4.333-.5-2.384.549-7.334 1.074-11 1.166-3.667.092-7.376.627-8.242 1.19-.866.561-1.951.411-2.412-.334-2.476-4.007-8.68.847-8.68 6.791v3.957L660 717.49c-2.933-2.905-5.333-5.928-5.333-6.719 0-.79-.98-1.438-2.176-1.438-1.768 0-2.042.998-1.46 5.334.841 6.274-.857 5.92-3.019-.63-3.365-10.196-10.607-9.632-10.66.83-.012 2.26-1.74 5.255-4.797 8.311-27.9 27.901-17.688 76.578 27.214 129.705 4.894 5.79 11.876 15.16 15.516 20.822 7.303 11.361 8.026 11.889 9.305 6.79zm164.743-2.626c0-1.921-13.975-28.332-14.876-28.113-1.025.249-3.766-4.435-10.664-18.224-4.408-8.813-13.624-35.506-15.864-45.95-.816-3.804-2.034-6.916-2.706-6.916-1.615 0-1.563 7.418.09 12.572.721 2.252 2.85 9.494 4.729 16.094 8.17 28.692 39.291 84.56 39.291 70.537zM709.39 670.634c21.894-4.032 52.545-13.947 60.866-19.69 2.06-1.422 7.28-4.854 11.6-7.628 99.324-63.762 115.215-200.39 32.797-281.983-7.778-7.7-15.007-14.609-16.064-15.353-1.057-.744-4.922-3.525-8.589-6.179-58.46-42.316-148.515-45.25-205.859-6.707-1.91 1.285-5.101 3.153-7.089 4.152-30.632 15.39-65.086 65.513-75.673 110.087-14.417 60.696 7.744 133.085 53.048 173.283 3.337 2.961 7.636 6.884 9.553 8.717 33.424 31.97 97.4 50.14 145.41 41.3z" fill="#d5894f"/><path d="M485.333 891.289c0-6.529.499-7.886 4.334-11.795 37.085-37.802 55.872-70.237 61.875-106.827 3.248-19.8 1.36-29.283-9.135-45.902-16.927-26.802 9.112-68.098 42.938-68.098 34.692 0 65.877 42.907 46.554 64.053-27.124 29.684-16.87 78.33 27.4 129.988 4.42 5.156 11.323 14.306 15.343 20.333 8.258 12.381 8.539 12.56 10.574 6.721 2.165-6.21 8.88-16.252 19.451-29.092 31.93-38.78 40.666-59.05 40.666-94.346v-15.187l-7.186-6.568c-41.99-38.376 22.126-100.063 68.204-65.62 13.547 10.126 22.856 27.558 21.193 39.689-2.817 20.555-13.672 30.15-21.513 19.018-1.789-2.538-2.299-2.688-3.382-.99-2.133 3.347-1.477 6.166 1.782 7.65 2.776 1.265 3.264 2.845 4.701 15.215 3.142 27.042 5.142 36.444 10.667 50.138 9.238 22.9 24.079 46.008 44.611 69.46 4.075 4.655 8.384 10.355 9.576 12.667 1.191 2.312 3.632 6.243 5.424 8.734 1.791 2.492 3.257 5.342 3.257 6.334 0 1.507-32.62 1.803-198.667 1.803H485.333zm357.906-27.35c-3.57-7.441-7.637-14.334-9.04-15.316-1.5-1.05-2.223-2.638-1.756-3.855.456-1.189.143-1.934-.735-1.752-3.313.687-23.567-49.336-23.755-58.668-.026-1.292-.905-3.848-1.953-5.681-2.377-4.158-2.94 6.818-.714 13.905.708 2.252 3.168 10.395 5.467 18.095 4.513 15.112 8.293 23.794 18.018 41.381 15.687 28.369 26.72 37.436 14.468 11.892z" fill="#1c1e1f"/></g><g aria-label="LUNAR" font-size="96" font-family="Modern Sans" letter-spacing="28" word-spacing="0" fill="#1c1e1f" text-anchor="middle"><path d="M519.53 1078.276h-41.087v-71.232h10.464v60.768h30.624v10.464zM557.13 1007.044H567.5v46.464q0 .768.576 3.168.576 2.304 2.304 4.8 1.728 2.496 4.896 4.416 3.168 1.92 8.352 1.92 5.088 0 8.16-1.92 3.168-1.92 4.896-4.416 1.728-2.496 2.304-4.8.576-2.304.576-3.072v-46.56h10.56v46.464q0 .576-.288 2.592t-1.248 4.8q-.96 2.688-2.688 5.76-1.728 3.072-4.704 5.664-2.976 2.592-7.296 4.32-4.224 1.632-10.272 1.632t-10.368-1.536q-4.32-1.632-7.296-4.032-2.88-2.496-4.704-5.472-1.728-2.976-2.688-5.664-.864-2.784-1.152-4.896-.288-2.208-.288-3.168zM647.723 1007.044l42.336 45.024v-45.024h10.464v71.232l-42.432-43.296v43.296h-10.368v-71.232zM790.059 1078.276l-4.128-9.696h-33.12l-4.128 9.696h-10.56l31.296-71.232 31.296 71.232zm-32.736-20.16h24.096l-12-28.128zM875.37 1078.276l-11.04-24.192q-.96.096-1.92.096H849.74v24.096h-10.464v-71.232h21.408q1.92 0 4.416.192 2.592.096 5.184.768 2.688.576 5.184 2.016 2.592 1.44 4.608 4.032 2.016 2.592 3.168 6.72 1.248 4.032 1.248 9.888 0 4.704-.768 8.256-.768 3.456-2.208 5.952-1.344 2.496-3.168 4.224-1.728 1.632-3.744 2.688l12.288 26.496zm-18.72-34.56q2.88 0 5.953-.096 3.168-.096 5.664-1.248 2.496-1.152 4.128-3.84 1.632-2.688 1.632-7.872 0-5.184-1.632-7.872-1.632-2.688-4.128-3.84-2.496-1.152-5.568-1.248-3.072-.192-5.952-.192h-7.008v26.208z" style="-inkscape-font-specification:'Modern Sans, Normal';text-align:center"/></g></svg>