<?xml version="1.0" encoding="UTF-8" standalone="no"?>
<!-- Created with Inkscape (http://www.inkscape.org/) -->

<svg
   version="1.1"
   id="svg105"
   width="1365.3333"
   height="1365.3333"
   viewBox="0 0 1365.3333 1365.3333"
   sodipodi:docname="logo.svg"
   inkscape:version="1.2.1 (9c6d41e410, 2022-07-14)"
   xml:space="preserve"
   xmlns:inkscape="http://www.inkscape.org/namespaces/inkscape"
   xmlns:sodipodi="http://sodipodi.sourceforge.net/DTD/sodipodi-0.dtd"
   xmlns="http://www.w3.org/2000/svg"
   xmlns:svg="http://www.w3.org/2000/svg"><defs
     id="defs109"><rect
       x="403.39355"
       y="975.37842"
       width="548.30322"
       height="136.64551"
       id="rect1271" /><rect
       x="288.65366"
       y="951.30333"
       width="818.47605"
       height="284.66486"
       id="rect587" /></defs><sodipodi:namedview
     id="namedview107"
     pagecolor="#ffffff"
     bordercolor="#666666"
     borderopacity="1.0"
     inkscape:showpageshadow="2"
     inkscape:pageopacity="0.0"
     inkscape:pagecheckerboard="0"
     inkscape:deskcolor="#d1d1d1"
     showgrid="false"
     inkscape:zoom="0.45254834"
     inkscape:cx="513.75727"
     inkscape:cy="778.92231"
     inkscape:window-width="1886"
     inkscape:window-height="788"
     inkscape:window-x="0"
     inkscape:window-y="0"
     inkscape:window-maximized="1"
     inkscape:current-layer="g525" /><g
     inkscape:groupmode="layer"
     inkscape:label="Image"
     id="g111"><rect
       style="fill:#d9dbdd;fill-opacity:1;stroke:none;stroke-width:15.0294;stroke-linecap:round;stroke-linejoin:round"
       id="rect1359"
       width="1365.3362"
       height="1365.3347"
       x="0"
       y="0" /><g
       id="g525"><g
         id="g1674"
         transform="translate(2.7157546)"><circle
           style="fill:#1c1e1f;fill-opacity:1;stroke:#1c1e1f;stroke-width:13.7025;stroke-linecap:round;stroke-linejoin:round;stroke-opacity:1"
           id="path4765"
           cx="681.21039"
           cy="489.74414"
           r="161.98796" /><path
           style="fill:#d7b193;stroke-width:1.33333"
           d="m 483.99999,892.29666 c 0,-7.40297 1.00612,-9.05695 13.5093,-22.2082 45.83684,-48.21264 66.34576,-107.87247 47.38903,-137.8532 -2.32741,-3.68089 -5.2902,-8.60314 -6.58397,-10.93834 l -2.3523,-4.24582 -7.52906,10.47444 c -14.27567,19.86034 -18.00878,24.67645 -18.63895,24.04628 -1.21627,-1.21628 8.60351,-19.27862 14.70973,-27.05689 3.38867,-4.31655 6.16159,-9.19159 6.16204,-10.8334 0.003,-8.69189 12.93398,-43.62873 17.10228,-46.20489 0.79682,-0.49247 1.073,-1.8746 0.61375,-3.07142 -0.51696,-1.34716 -0.29837,-1.84436 0.57381,-1.30532 0.77487,0.4789 2.22683,-0.13785 3.22659,-1.37054 1.56513,-1.92979 1.5398,-2.07135 -0.18225,-1.0186 -1.1,0.67246 -2.9387,1.06878 -4.08599,0.8807 -1.22251,-0.20041 -11.4332,9.4527 -24.66667,23.31966 -12.41937,13.01388 -24.38068,25.50704 -26.58068,27.76256 -2.2,2.25553 -6.25,6.73466 -9,9.95364 -7.5259,8.80932 -6.0315,4.72881 3.68714,-10.06783 4.77793,-7.2744 9.07894,-14.12617 9.55781,-15.22617 0.47887,-1.1 2.46133,-4.4 4.40547,-7.33334 11.06881,-16.7007 22.09188,-38.08726 23.42638,-45.45104 l 0.9452,-5.21562 -9.8633,9.33333 c -10.37752,9.81992 -14.92668,13.83969 -25.82927,22.82349 -6.69008,5.51268 -10.69453,8.4255 -28.035,20.39247 -5.15473,3.55737 -10.17272,7.43247 -11.15108,8.61132 -0.97836,1.17884 -2.31529,1.81181 -2.97096,1.40659 -0.65566,-0.40523 3.85278,-5.94863 10.01875,-12.31866 6.16597,-6.37004 13.22041,-14.02614 15.67653,-17.01357 2.45612,-2.98743 6.56567,-7.99905 9.13233,-11.13693 7.41787,-9.06872 28.0877,-39.12147 27.38823,-39.82092 -0.34937,-0.34938 -4.86895,1.99534 -10.04348,5.21049 -5.17455,3.21515 -13.31575,8.05788 -18.09157,10.76164 -4.77583,2.70375 -12.11153,7.23273 -16.30157,10.06441 -4.19006,2.83167 -11.21827,7.16166 -15.61827,9.62219 -4.4,2.46052 -9.8,5.48939 -12,6.73081 -16.60469,9.36976 -20.19235,11.00998 -15.51043,7.09116 7.85132,-6.57164 31.19728,-27.40402 40.1771,-35.85137 4.76666,-4.48403 14.83534,-13.72171 22.37483,-20.52816 26.34411,-23.78277 23.63683,-23.58564 -31.70817,2.30897 -55.0503,25.75672 -60.88868,27.41703 -35.92745,10.21699 7.37323,-5.08067 16.82323,-11.67663 21,-14.65766 4.17676,-2.98104 13.59412,-9.53106 20.92745,-14.55559 34.13759,-23.38981 36.19031,-28.66404 7.23322,-18.58492 -38.01216,13.23093 -80.9631,26.60849 -82.0242,25.54739 -0.28122,-0.28123 3.2317,-2.26371 7.8065,-4.40551 4.5748,-2.14181 11.50604,-5.89168 15.40276,-8.33305 3.89672,-2.44138 14.99672,-8.23082 24.66667,-12.86544 12.20661,-5.85039 21.65801,-11.58139 30.91505,-18.7458 l 13.33333,-10.31923 -9.51802,0.9072 c -5.23492,0.49896 -16.33492,2.31965 -24.66667,4.04597 -8.33176,1.72634 -19.64864,4.0686 -25.14864,5.20504 -16.14774,3.33658 -39.67597,7.5241 -42.26878,7.52296 -3.6009,-10e-4 19.52696,-10.09337 37.15,-16.21033 26.56156,-9.21951 64.11357,-31.5468 50.27894,-29.89433 -45.48938,5.43346 -54.31408,6.11222 -78.20794,6.01548 -25.37774,-0.1028 -25.13744,-0.53118 3.71445,-6.6226 11.36667,-2.39982 25.76667,-6.12546 32,-8.27922 6.23333,-2.15374 19.08671,-5.52172 28.56304,-7.48438 22.75521,-4.71288 21.99133,-8.16816 -2.56304,-11.59342 -3.66667,-0.51148 -11.76667,-2.0652 -18,-3.4527 -34.68465,-7.72056 -43.09072,-9.28006 -54,-10.01806 -35.35971,-2.39204 -0.0712,-4.99059 49.88649,-3.67351 48.11838,1.26857 55.45009,-0.79808 26.78018,-7.54876 -3.3,-0.77703 -8.1,-1.93988 -10.66667,-2.58414 -2.56667,-0.64424 -15.16667,-3.3628 -28,-6.04122 -12.83333,-2.67842 -29.03333,-6.15979 -36,-7.73635 l -12.66667,-2.86651 25.33334,-0.79657 c 13.93333,-0.43812 37.92596,-0.33275 53.31696,0.23415 15.391,0.56689 28.28202,0.73232 28.64674,0.3676 2.57732,-2.57732 -32.37017,-19.65586 -53.9637,-26.3716 -40.78846,-12.68548 -49.7403,-18.58752 -21.48707,-14.16662 4.48456,0.70171 13.25373,1.95435 19.48707,2.78363 13.25256,1.76311 41.06461,8.20396 53.00993,12.27631 19.02628,6.48633 9.99562,-5.91564 -14.76355,-20.27511 -2.33552,-1.35452 -11.56501,-6.691 -20.50998,-11.85885 -21.18316,-12.23831 -41.7364,-25.5494 -41.7364,-27.03015 0,-1.53672 -0.74055,-1.7418 10.66666,2.95387 12.12192,4.98988 29.3082,10.97373 53.33334,18.56938 9.9,3.12994 21.43289,7.404 25.62863,9.49794 11.96716,5.9723 14.08999,4.26501 5.20552,-4.18658 -8.80221,-8.37334 -52.72901,-43.46398 -64.40993,-51.45346 -13.25537,-9.06636 -12.39741,-8.35743 -11.3644,-9.39044 0.4607,-0.46068 3.55415,0.43932 6.87436,2 3.32022,1.56069 6.39362,2.83761 6.82978,2.83761 0.43617,0 12.8927,6.07375 27.6812,13.49723 27.95447,14.03248 56.92711,26.90826 58.04119,25.7942 0.35422,-0.35423 -4.4103,-5.89651 -10.58784,-12.31619 -6.17752,-6.41968 -15.17685,-15.86535 -19.9985,-20.99036 -4.82165,-5.12501 -17.28708,-17.65278 -27.70095,-27.83948 -20.03688,-19.59981 -22.54554,-23.23209 -9.92754,-14.37405 4.25066,2.98404 18.22848,12.42303 31.06181,20.97552 22.73782,15.15315 37.17428,25.45117 38.80648,27.68201 0.44357,0.60625 2.61997,0.90776 4.83646,0.67003 l 4.02996,-0.43224 -7.8798,-12.66667 c -4.33388,-6.96666 -8.26854,-13.56666 -8.74368,-14.66666 -0.7966,-1.8442 -4.66425,-7.14143 -22.3906,-30.66667 -6.31584,-8.38196 -16.90614,-21.45273 -20.32549,-25.08613 -0.91666,-0.97406 -1.66666,-2.47203 -1.66666,-3.32882 0,-0.85678 1.43318,-0.064 3.18485,1.76191 5.57685,5.813 18.70933,17.77835 26.58648,24.22364 8.40513,6.87731 23.70373,20.47097 40.09528,35.62692 14.01256,12.95628 14.46162,11.54564 3.77696,-11.86419 -2.51031,-5.5 -5.47982,-12.26902 -6.59891,-15.04228 -1.11909,-2.77325 -5.64443,-11.77325 -10.05629,-20 -4.41188,-8.22674 -8.95234,-16.75772 -10.08992,-18.95772 -1.13758,-2.2 -4.53203,-7.60816 -7.54322,-12.01812 -3.0112,-4.40997 -5.94756,-8.90997 -6.52524,-10 -2.832,-5.3437 36.13968,38.45983 54.0074,60.70344 7.06058,8.78975 14.19934,17.18135 15.86394,18.64802 l 3.02653,2.66666 -0.83159,-5.33333 c -0.81762,-5.24391 -11.96385,-36.53356 -24.22342,-68 -11.17862,-28.69192 -11.69566,-31.56209 -3.41835,-18.97604 9.60363,14.60281 26.10899,40.75844 32.62685,51.70297 8.30206,13.94047 14.38903,22.54003 15.9812,22.57794 3.89856,0.0928 -2.2735,-35.52208 -11.20178,-64.6382 -1.57411,-5.13334 -3.47555,-11.39422 -4.22543,-13.91306 -0.74988,-2.51885 -2.14571,-5.81885 -3.10184,-7.33333 -2.689,-4.25932 -4.20312,-12.96965 -1.63753,-9.42028 3.79021,5.24359 14.03392,22.91337 21.64324,37.33333 9.79646,18.5647 25.81875,45.73424 27.63046,46.85394 1.52269,0.94108 1.07697,-4.62204 -3.00611,-37.5206 -3.55219,-28.62107 -3.86761,-30.66758 -6.82581,-44.28675 -4.88536,-22.49169 -2.9257,-21.64649 6.84765,2.95341 3.36471,8.46907 14.18736,37.30848 20.01459,53.33334 11.5418,31.73996 12,30.24569 12,-39.13451 0,-48.5215 0.75373,-49.77966 7.30796,-12.19883 1.08712,6.23334 2.89903,15.53334 4.02645,20.66667 1.12743,5.13333 2.60419,12.03333 3.28168,15.33333 1.8954,9.23235 8.08039,29.86335 9.33375,31.13422 1.89475,1.92121 2.47868,-2.44632 6.03441,-45.13422 4.89903,-58.81453 5.43547,-59.28501 10.64166,-9.33333 6.45513,61.93479 8.03044,66.64789 13.36964,40 1.17544,-5.86667 4.48274,-20.33492 7.34954,-32.15168 2.8668,-11.81676 5.84772,-25.4622 6.62427,-30.3232 1.38795,-8.68818 3.69731,-15.52456 5.24467,-15.5257 0.43228,-3.2e-4 0.59093,22.34967 0.35256,49.66666 -0.28007,32.09381 0.024,49.19549 0.85945,48.33392 0.71108,-0.73333 2.83635,-5.66429 4.72283,-10.95768 12.05768,-33.83357 32.19142,-84.37565 33.61154,-84.37565 0.79139,0 0.48033,2.04493 -4.76608,31.33333 -5.16361,28.82623 -8.31194,53.39896 -7.77278,60.66667 l 0.44512,6 5.03822,-6.66667 c 2.77103,-3.66667 8.54768,-13.89033 12.83699,-22.71927 4.28932,-8.82893 9.89416,-19.32893 12.45522,-23.33333 2.56107,-4.0044 7.51686,-13.28073 11.01287,-20.61407 6.74461,-14.1477 8.63901,-15.33061 5.30828,-3.31461 -13.67893,49.34827 -22.49808,89.40781 -19.65159,89.26413 1.61727,-0.0816 9.62699,-10.8807 17.59202,-23.71836 4.0744,-6.5669 12.84621,-19.95538 19.49294,-29.75216 6.64672,-9.79678 13.72202,-20.66233 15.72287,-24.14566 4.57009,-7.95619 5.08383,-7.95619 2.70132,0 -2.8206,9.41917 -16.73063,46.76153 -21.24785,57.04122 -3.80186,8.65174 -10.47615,36.62544 -8.73852,36.62544 0.46484,0 4.2895,-4.35 8.49928,-9.66666 16.97728,-21.44123 46.4352,-57.4549 55.90045,-68.3409 5.17219,-5.94853 5.03383,-3.5167 -0.28491,5.00756 -7.66416,12.28328 -21.37668,38.31994 -24.7531,47 -0.85578,2.2 -4.92987,12.09724 -9.05355,21.99387 -10.39363,24.94413 -10.2748,25.46164 2.87428,12.51812 19.1662,-18.86659 50.05035,-48.18289 67.6374,-64.20376 1.09878,-1.00093 -2.78331,4.64843 -19.94528,29.02511 -18.69731,26.55742 -39.10733,60.73445 -37.33073,62.51106 0.98593,0.98592 50.20715,-33.61228 63.48453,-44.62406 18.92329,-15.6943 22.81008,-16.0983 8.77421,-0.91199 -4.58772,4.96373 -12.82908,14.12499 -18.31413,20.35832 -5.48504,6.23333 -10.77363,11.83675 -11.75241,12.45204 -2.27307,1.42891 -30.95467,35.96321 -30.36123,36.55666 0.69171,0.6917 27.10689,-11.25453 36.76908,-16.62874 22.74792,-12.65266 62.66666,-32.02577 62.66666,-30.413 0,0.27221 -4.35,3.35759 -9.66666,6.85641 -10.44346,6.87268 -16.40836,11.43396 -31.1805,23.84329 -5.23778,4.4 -11.8324,9.8 -14.65469,12 -2.82229,2.2 -7.53895,6.14087 -10.48147,8.75747 -2.9425,2.61661 -7.45001,6.18519 -10.01667,7.93017 -9.2686,6.30139 -15.06308,14.13784 -8.33334,11.26999 1.28334,-0.54688 15.83334,-5.63135 32.33333,-11.29881 16.5,-5.66746 32.4,-11.34376 35.33334,-12.614 2.93333,-1.27024 6.83333,-2.80131 8.66666,-3.40236 1.83334,-0.60106 8.39136,-3.23347 14.5734,-5.84979 13.3227,-5.63836 14.98823,-5.34723 5.21863,0.91221 -29.516,18.9111 -44.41521,28.23319 -68.21423,42.68007 -8.20112,4.97839 -16.11113,10.29671 -17.57779,11.81848 l -2.66667,2.76687 8.66667,-0.91547 c 4.76666,-0.50351 13.46666,-1.98537 19.33333,-3.29304 11.88161,-2.64839 21.49628,-4.64844 54.66666,-11.37181 12.46667,-2.5269 24.16667,-5.005 26,-5.5069 6.946,-1.90153 0.45392,1.94026 -11.33333,6.70668 -6.6,2.66886 -13.8,5.69182 -16,6.7177 -2.2,1.02588 -7.3,3.09474 -11.33333,4.59748 -7.49588,2.79281 -32.28826,12.78441 -48.21282,19.4303 -4.88372,2.03815 -10.58372,5.1465 -12.66666,6.90742 l -3.78719,3.20168 50,-0.76703 c 27.5,-0.42187 52.85,-1.10315 56.33333,-1.51395 11.99926,-1.41513 6.3078,1.69144 -7.33333,4.00279 -14.52277,2.46073 -23.62355,4.38876 -57.66667,12.21685 -11.73333,2.69804 -24.81572,5.673 -29.07196,6.611 -4.25624,0.93802 -8.0528,2.01966 -8.43678,2.40363 -3.06529,3.06531 61.02012,8.73604 100.58744,8.90069 12.64666,0.0527 8.90861,2.00643 -7.34003,3.83641 -7.92293,0.89232 -19.50533,2.19644 -25.73867,2.89807 -6.23333,0.70163 -23.33333,2.49981 -38,3.99597 -14.66666,1.49616 -27.26666,2.93422 -28,3.19567 -4.42789,1.57868 21.0563,9.22857 50.66667,15.20921 7.33333,1.48118 19.93333,4.0257 28,5.65448 33.19229,6.70208 34.29679,6.4497 -27.00072,6.16943 -30.98372,-0.14165 -56.33372,-0.0971 -56.33333,0.0992 0.005,2.57864 53.84605,25.11373 82.66156,34.59797 18.10194,5.95802 19.59225,6.57 18.54634,7.6159 -1.07472,1.07472 -41.61658,-5.11851 -65.20718,-9.96112 -10.66938,-2.19019 -35.89017,-5.49308 -38.31248,-5.01736 -3.43803,0.67517 6.25086,6.97006 26.31248,17.09525 9.16666,4.62647 22.36666,11.73987 29.33333,15.80757 6.96667,4.06771 15.06667,8.66614 18,10.21872 25.00252,13.23362 23.71207,13.07778 -28,-3.38137 -21.56873,-6.86499 -49.80653,-13.34797 -58,-13.31595 -1.1,0.004 1.9,2.51655 6.66667,5.58276 22.19865,14.27955 43.39542,28.28311 44,29.06843 0.36666,0.47628 4.56666,3.48497 9.33333,6.68598 31.86619,21.39944 30.43612,23.5533 -4.44256,6.69104 -29.46125,-14.24322 -49.94064,-21.83165 -62.89077,-23.30358 l -8,-0.90929 11.33333,7.61145 c 20.28806,13.62545 54.18563,45.64338 63.47371,59.95408 l 2.52629,3.89241 -4.46931,-3.31149 c -27.28361,-20.21554 -39.11113,-27.83052 -56.21361,-36.19235 -14.39569,-7.03843 -24.75338,-10.51341 -23.75756,-7.97061 0.24227,0.6186 5.04839,6.16324 10.68028,12.32142 16.23366,17.75067 28.13468,32.33815 36.07977,44.22418 2.00911,3.00565 4.12891,5.80405 4.71067,6.21868 1.04595,0.74544 9.65276,12.53277 11.50308,15.75385 1.98163,3.44969 -0.56375,1.34851 -11.38835,-9.40097 -13.65249,-13.55776 -21.03851,-19.49627 -35.76391,-28.75488 -6.25958,-3.93572 -14.08106,-9.38706 -17.38106,-12.11407 -19.45718,-16.07877 -21.37092,-12.70947 -5.26525,9.26992 5.99288,8.17848 5.85991,7.98088 19.74017,29.33333 8.70688,13.3941 14.4052,23.53839 19.28479,34.33132 2.20329,4.87336 -0.0232,4.98439 -2.52487,0.12587 -4.0915,-7.94585 -17.2173,-23.17669 -35.23484,-40.88555 -13.22292,-12.99638 -23.02249,-19.20036 -32.66666,-20.68084 l -5.33334,-0.81872 5.35259,4.96396 c 2.94392,2.73018 7.14051,7.36396 9.32575,10.2973 2.18524,2.93333 4.30737,5.63333 4.71586,6 1.56435,1.40418 5.27247,12.92276 5.27247,16.3779 0,1.99215 0.56044,3.6221 1.24541,3.6221 0.68498,0 5.2498,7.95 10.14407,17.66666 4.89425,9.71667 10.66199,20.2885 12.81719,23.49295 2.15521,3.20445 3.71853,6.02629 3.47406,6.27077 -2.1231,2.12309 -20.27472,-21.25628 -25.43757,-32.76372 -2.5814,-5.75366 -2.72991,-5.85994 -3.61724,-2.5888 -3.71221,13.68508 -12.59083,19.55146 -19.61021,12.95707 -2.66326,-2.50199 -3.34498,-2.65956 -4.36514,-1.00889 -0.885,1.43196 -0.33021,2.41658 2.07023,3.6743 1.80356,0.94499 3.2792,2.20268 3.2792,2.79488 0,0.5922 1.46812,11.60055 3.26248,24.463 5.43144,38.93403 17.34803,63.94739 48.7724,102.37511 10.68413,13.06522 23.96512,32.40755 23.96512,34.90261 0,0.60356 -90,1.09738 -200,1.09738 H 483.99999 Z m 203.64739,-18.70505 c 2.37274,-4.90874 9.1646,-14.62496 15.09304,-21.59163 29.25188,-34.37465 39.19927,-55.65555 41.63407,-89.06965 l 1.48672,-20.40297 -5.57913,-4.93036 c -3.06852,-2.7117 -7.3873,-7.26286 -9.59728,-10.11368 -4.64394,-5.99059 -5.3315,-4.52838 -1.17959,2.50857 3.49288,5.92 2.90045,12.14708 -2.72805,28.67476 -5.41154,15.89054 -8.11051,25.233 -8.11051,28.07442 0,1.33918 -0.68764,2.85984 -1.52808,3.37927 -2.33483,1.443 2.16984,-36.64449 4.52383,-38.24936 0.64188,-0.43761 0.96569,-3.73761 0.71957,-7.33333 -0.41517,-6.06573 -0.52644,-6.24892 -1.54131,-2.53767 -0.60161,2.2 -2.19094,6.44574 -3.53184,9.43497 -2.31884,5.16931 -3.58114,9.29058 -9.2965,30.35188 -1.3612,5.0161 -2.82084,9.4661 -3.24363,9.88888 -0.75345,0.75347 -1.38117,-7.05065 -0.77827,-9.67573 0.82142,-3.5764 1.26587,-33.47552 0.532,-35.78777 -1.5387,-4.84801 -2.8843,0.52868 -2.95005,11.78777 -0.0343,5.86667 -0.35616,11.86667 -0.71533,13.33333 -0.35916,1.46667 -0.74922,3.26667 -0.86679,4 -0.69037,4.3063 -3.83652,-16.53397 -3.92508,-25.99999 -0.0733,-7.83583 -0.50489,-10.71612 -1.39852,-9.33334 -1.59453,2.46736 -1.68137,-10.9198 -0.13187,-20.33333 1.13142,-6.87371 0.0733,-7.90023 -4.17785,-4.05301 -1.72949,1.56517 -2.8078,1.81617 -3.43832,0.80033 -4.73659,-7.63119 -12.20469,-1.21583 -12.23152,10.50732 -0.0107,4.90672 -0.66189,9.31777 -1.44591,9.80232 -0.78402,0.48456 -1.32589,3.06996 -1.20414,5.74536 0.12173,2.67539 0.1176,6.96435 -0.009,9.53101 l -0.23062,4.66667 -1.87703,-4.66667 c -1.71516,-4.2642 -1.8078,-3.28678 -1.07415,11.33333 l 0.8029,16 -2.62332,-3.33333 c -1.44282,-1.83333 -3.01158,-5.73333 -3.48612,-8.66667 -0.88591,-5.47614 -1.61596,-9.36992 -3.49983,-18.66666 l -1.08073,-5.33333 -0.14608,6.22428 c -0.17471,7.44331 -1.25779,10.73674 -3.14694,9.56918 -0.91901,-0.56797 -1.05818,0.44837 -0.41186,3.00767 1.49189,5.90754 4.74216,24.88174 4.74421,27.69545 0.008,10.29711 -19.48207,-28.89301 -26.10215,-52.48681 -4.42293,-15.76321 -11.86221,-7.72933 -15.30132,16.52429 -4.00897,28.27247 11.58592,64.74807 42.81096,100.1326 3.88278,4.4 10.01496,12.65 13.62708,18.33333 7.87711,12.39391 7.2617,12.33252 12.61466,1.2583 z m 146.68569,-18.59163 c -0.88536,-2.01667 -3.57249,-7.06763 -5.97141,-11.22435 -2.39892,-4.15673 -4.36168,-8.46388 -4.36168,-9.57144 0,-1.10754 -0.84743,-2.86116 -1.88316,-3.89689 -2.20035,-2.20035 -8.95419,-21.81423 -13.42029,-38.97399 -2.60534,-10.01024 -3.27446,-11.40458 -4.0354,-8.40912 -0.50171,1.975 -0.48091,4.28874 0.0463,5.14164 0.52714,0.85291 3.23112,9.13702 6.00886,18.40912 6.51482,21.74652 7.30108,23.70595 15.7263,39.1917 6.45428,11.86313 11.75255,18.13016 7.89058,9.33333 z M 709.33332,669.34909 c 58.36503,-9.90569 103.94967,-41.06356 133.64574,-91.3491 46.31205,-78.42208 22.09437,-185.62461 -53.65491,-237.51001 -16.71285,-11.44767 -25.95484,-16.02284 -51.28781,-25.38961 -26.34621,-9.74144 -71.79522,-10.99062 -102.70302,-2.82283 -43.68408,11.54409 -85.67031,41.18346 -107.80377,76.10198 -10.40648,16.41763 -20.94192,40.52502 -24.30734,55.62047 -0.57221,2.56667 -1.18708,5.26667 -1.36636,6 -3.56589,14.58617 -4.61853,50.15004 -1.91402,64.66666 2.49928,13.41511 8.15825,33.69078 12.25456,43.9072 12.78768,31.89319 43.7151,67.94556 73.13693,85.25636 4.03333,2.37308 10.03333,5.95379 13.33333,7.95713 3.3,2.00335 8.1,4.32823 10.66667,5.1664 2.56667,0.83818 7.36666,2.53376 10.66666,3.76796 8.69666,3.25259 22.26079,7.08338 28.55051,8.06324 2.99721,0.46695 8.44949,1.3065 12.11616,1.86567 12.46332,1.90069 33.0416,1.35036 48.66667,-1.30152 z"
           id="path531"
           sodipodi:nodetypes="sssscssscssssssssssssscssssssssssssssssssssssssssscssscsssssssssssssscssssssssssssssssssssssssssscssssscsssssssssscsssssssssssssssssssssssssssssssscssssssssssssssssssssssssssssssssssssssssscssssssssscssssssssssssssssssssssscssssscsscsssssssssssssssscsssssssssssssssssscscsscsssssssssssssssssssssscssccsscssscssscssssccssssssssssssssssssssssssssss" /><path
           style="fill:#d5894f;stroke-width:1.33333"
           d="m 484.79329,897.53823 c -2.76352,-4.47147 1.72399,-15.15769 10.00998,-23.83706 14.35852,-15.04019 15.42193,-16.27978 22.62057,-26.36786 10.77027,-15.0933 14.14464,-20.41633 18.17237,-28.66666 19.3527,-39.6417 22.29931,-67.25284 9.32006,-87.33333 -2.36999,-3.66667 -5.45255,-8.86174 -6.85014,-11.54459 l -2.54108,-4.87793 -2.19142,2.87793 c -1.20528,1.58285 -5.0708,6.95555 -8.59004,11.93931 -3.51924,4.98376 -6.69182,8.76817 -7.05018,8.40981 -0.35836,-0.35836 2.66415,-5.35657 6.71668,-11.10715 5.80047,-8.23088 7.68363,-12.1947 8.85039,-18.62904 3.57764,-19.72945 10.94791,-36.25566 20.59667,-46.18352 4.87393,-5.0149 5.53697,-6.21816 3.42644,-6.21816 -1.43932,0 -2.61694,0.53323 -2.61694,1.18495 0,0.65172 -1.99629,1.55945 -4.4362,2.01717 -4.06761,0.7631 -30.90344,26.40218 -48.3162,46.16154 -2.24716,2.54998 -5.48446,5.83634 -7.19401,7.30301 l -3.10828,2.66667 1.69465,-3.33334 c 0.93207,-1.83333 2.98531,-5.13333 4.56278,-7.33333 3.51433,-4.90123 11.2969,-17.90984 15.55484,-26 1.73682,-3.3 3.84278,-6.9 4.67993,-8 3.32012,-4.36263 9.85025,-17.56615 11.03433,-22.31072 3.80444,-15.24435 3.88691,-15.20631 -7.45669,-3.43952 -10.83099,11.23503 -28.34532,26.15656 -39.68181,33.80736 -7.14547,4.82235 -7.19084,4.85563 -13.52581,9.92279 -5.20067,4.15985 -6.60867,4.31381 -3.23223,0.35342 22.41422,-26.29077 53.4247,-67.43578 53.4247,-70.88445 0,-1.13013 -9.14069,3.60733 -18.41468,9.544 -6.57276,4.20751 -17.1985,10.49241 -26.25198,15.52752 -1.46667,0.81568 -5.36667,3.34791 -8.66667,5.62716 -11.75433,8.11852 -25.23709,13.83804 -19.521,8.28101 20.6484,-20.07382 34.32731,-32.97636 43.49636,-41.02762 26.46755,-23.24092 23.35863,-26.04292 -11.01343,-9.92615 -11.89573,5.57782 -25.82859,11.8962 -30.96193,14.04087 -5.13333,2.14466 -11.13333,4.74997 -13.33333,5.78957 -18.78915,8.87868 -18.76251,8.86849 -16,6.11669 2.56664,-2.5567 7.89828,-6.38784 47.33333,-34.01206 40.18444,-28.14919 34.95576,-33.00336 -14,-12.99728 -9.28112,3.79279 -43.55594,13.80924 -44.39208,12.97312 -1.03058,-1.0306 13.46984,-9.46288 31.72542,-18.44893 9.9,-4.87314 19.8,-10.44116 22,-12.3734 2.2,-1.93223 7.75,-6.20212 12.33333,-9.48863 14.22882,-10.20289 8.34014,-10.79997 -29.66667,-3.00801 -23.02878,4.72125 -47.09844,9.1637 -49.98025,9.22469 -2.62595,0.0556 5.34432,-4.08159 15.31359,-7.94891 14.32181,-5.55576 35.92124,-15.07501 39.33333,-17.33492 1.83333,-1.21424 6.33333,-3.56778 10,-5.23008 24.13313,-10.94085 23.65526,-14.52296 -1.55223,-11.63546 -34.4816,3.94984 -49.09225,5.02829 -62.44777,4.60944 -15.12056,-0.47422 -16.14095,0.0944 13.33333,-7.43004 8.8,-2.24655 19.3,-5.29791 23.33334,-6.7808 4.03333,-1.4829 13.93333,-3.95975 22,-5.50412 17.7569,-3.39959 28.52726,-8.03654 18.66666,-8.03654 -1.1,0 -2,-0.53436 -2,-1.18745 0,-0.65311 -1.95,-1.523 -4.33333,-1.93309 -2.38333,-0.41008 -9.13333,-1.64686 -15,-2.74836 -9.96792,-1.87155 -14.58381,-2.85203 -38.66667,-8.21326 -5.13333,-1.14277 -14.00342,-2.86188 -19.71133,-3.82024 -5.70789,-0.95836 -10.78567,-2.15014 -11.28392,-2.64841 -0.49827,-0.49826 19.47184,-0.72816 44.378,-0.51089 54.03938,0.47141 63.39429,-2.08715 32.71632,-8.94791 -4.08781,-0.91418 -11.9324,-2.87116 -17.4324,-4.34882 -5.5,-1.47767 -21.7,-5.00152 -36,-7.83078 l -26,-5.14412 20,-0.7604 c 11,-0.41822 32.6,-0.32746 48,0.2017 37.6418,1.29342 38.62198,-0.79818 7.33333,-15.64847 -16.40354,-7.78551 -14.37405,-6.99819 -41,-15.90535 -19.48321,-6.5177 -30.4429,-11.59729 -20,-9.26958 1.65,0.36778 9.3,1.31389 17,2.10246 15.73186,1.61115 42.76607,7.36012 60.41654,12.84791 11.69562,3.63635 14.13057,3.43335 14.22971,-1.18632 0.0716,-3.33628 -28.84873,-22.83473 -54.29245,-36.60468 -8.65546,-4.68427 -28.48797,-18.08753 -27.79262,-18.78289 0.28186,-0.28186 1.6209,0.0969 2.97565,0.84188 4.28641,2.35685 19.24723,7.71853 35.79651,12.82881 24.8208,7.66447 31.28065,9.95841 41.35449,14.68531 25.71076,12.0641 19.69584,3.02204 -18.68783,-28.09294 -8.06666,-6.53908 -15.86666,-12.9892 -17.33333,-14.33357 -1.46667,-1.34439 -7.31873,-5.80016 -13.0046,-9.90173 -5.68585,-4.10156 -10.06861,-7.72671 -9.73945,-8.05587 0.59694,-0.59693 5.08504,1.48028 45.41072,21.01737 23.34733,11.31139 26.66541,12.82591 38.99999,17.8014 10.56016,4.25974 10.45328,3.09334 -0.80621,-8.7987 -5.02675,-5.30915 -11.17675,-12.02414 -13.66667,-14.92218 -2.48992,-2.89805 -15.02712,-15.73214 -27.86045,-28.52022 -12.83333,-12.78807 -22.01832,-22.41695 -20.41108,-21.39748 2.6914,1.70711 58.3782,39.32103 64.88992,43.8302 1.56997,1.08714 3.33431,2.73714 3.92075,3.66666 0.58644,0.92951 3.43644,1.69002 6.33333,1.69002 5.22713,0 6.38024,-0.9658 4.0594,-3.4 -0.66423,-0.69667 -2.38419,-3.36667 -3.82213,-5.93334 -6.39179,-11.40901 -17.5206,-28.67802 -23.63963,-36.68249 -18.44823,-24.13264 -22.58469,-29.35345 -23.58048,-29.76194 -0.59588,-0.24446 -1.08341,-1.11622 -1.08341,-1.93727 0,-0.82105 2.25,0.66961 5,3.31257 2.75,2.64298 8.65286,7.71475 13.11746,11.2706 8.75008,6.96904 23.74002,20.31624 41.32759,36.79854 16.70577,15.65592 17.46832,14.27952 6.38752,-11.5295 -9.29137,-21.64116 -25.04144,-52.7199 -31.67985,-62.51212 -4.05514,-5.98166 -1.73142,-5.40308 2.98794,0.74396 2.37775,3.09704 6.87404,8.33099 9.9918,11.63099 5.90847,6.25385 21.52066,24.64987 34.51268,40.66667 12.92924,15.9394 15.25828,18.44168 16.01062,17.2015 1.18112,-1.947 -3.61304,-18.83914 -10.98228,-38.69593 -8.65759,-23.32835 -17.13056,-45.70419 -18.61986,-49.17224 -1.74046,-4.05295 -2.69462,-7.33333 -2.13302,-7.33333 0.72296,0 34.58393,53.08917 37.41837,58.66666 20.73636,40.80418 19.79979,0.92688 -1.49904,-63.82556 -1.05391,-3.20406 -2.52013,-6.95406 -3.25831,-8.33333 -0.73816,-1.37928 -1.0332,-2.50777 -0.65564,-2.50777 0.37758,0 1.96859,2.55 3.5356,5.66666 1.56702,3.11667 3.60427,6.56667 4.52724,7.66667 0.92298,1.1 5.4472,9.2 10.05383,18 11.86389,22.66344 14.03573,26.54259 19.99693,35.71667 2.91156,4.48078 5.29375,8.62073 5.29375,9.19986 0,1.53151 4.38904,6.4168 5.76497,6.4168 1.91716,0 -4.80606,-59.50153 -9.24033,-81.77832 -1.14351,-5.74474 -1.81012,-10.71398 -1.48135,-11.04275 0.61154,-0.61152 1.07678,0.45898 6.73096,15.48774 1.79333,4.76667 6.03392,15.86667 9.42352,24.66667 3.38959,8.8 8.70893,22.9 11.82075,31.33333 9.84652,26.68501 11.23732,22.03379 11.56196,-38.66667 0.20517,-38.36253 1.64152,-44.94067 4.60052,-21.06942 1.67148,13.48437 12.3575,58.22605 15.96205,66.83205 4.32839,10.33419 5.12367,7.12712 8.86832,-35.76263 4.24905,-48.66698 4.20551,-48.30114 5.39715,-45.33333 0.58889,1.46667 1.11684,5.36667 1.1732,8.66667 0.16777,9.82241 7.94962,69.69666 9.57445,73.66666 3.42385,8.3656 4.46248,4.95423 21.21079,-69.66666 l 3.74076,-16.66667 0.1128,46.92131 c 0.14097,58.63308 -0.0265,58.37194 13.52232,21.07869 8.22501,-22.63929 19.64287,-51.63272 22.84091,-58 l 2.3439,-4.66666 -0.71799,4.66666 c -0.39489,2.56667 -1.52535,8.86667 -2.51213,14 -5.71236,29.71624 -9.01471,55.77779 -8.44755,66.66667 l 0.41668,8 7.17509,-10 c 3.94631,-5.5 9.8667,-15.7 13.15643,-22.66667 3.28972,-6.96667 8.60776,-17.00123 11.81785,-22.29903 3.21008,-5.29778 7.68567,-13.09778 9.94574,-17.33333 2.26006,-4.23553 3.71921,-6.20097 3.24254,-4.36764 -7.59221,29.20071 -16.09289,63.88632 -18.46252,75.33333 -2.5543,12.3391 -0.96926,14.70168 5.31446,7.92144 2.94129,-3.17372 13.81041,-18.85234 13.81041,-19.92144 0,-0.26294 2.55,-4.20988 5.66667,-8.77093 3.11666,-4.56107 10.91666,-16.11461 17.33333,-25.67457 6.41667,-9.55995 11.66667,-16.8641 11.66667,-16.23143 0,1.96716 -8.25059,23.93964 -9.49139,25.27693 -0.6464,0.69667 -1.17528,2.09188 -1.17528,3.10048 0,1.47902 -6.31577,18.92638 -11.93343,32.96619 -0.9279,2.31905 -3.59726,13.41299 -5.99569,24.91828 -1.79269,8.59956 3.91103,3.42785 20.86439,-18.91828 1.94725,-2.56667 4.93342,-6.29513 6.63593,-8.28549 1.70251,-1.99036 7.89547,-9.44538 13.76213,-16.56671 5.86667,-7.12133 12.97982,-15.39285 15.80702,-18.38117 l 5.14033,-5.4333 -2.70619,4.66667 c -3.39812,5.85987 -18.90782,36.90619 -18.90782,37.84845 0,0.38416 -1.74146,4.47542 -3.8699,9.09168 -19.88893,43.13602 -18.87364,45.51188 8.13676,19.0407 25.83763,-25.32182 51.22104,-48.64698 48.95004,-44.98083 -1.02211,1.65 -2.31404,3 -2.87097,3 -0.55694,0 -1.01538,0.75 -1.01878,1.66667 -0.004,0.91666 -1.80338,3.58412 -3.99999,5.92769 -2.1966,2.34356 -3.99642,4.74356 -3.99956,5.33333 -0.003,0.58976 -2.32758,4.13462 -5.16538,7.87743 -6.08392,8.0242 -27.61721,43.76487 -31.84838,52.86154 -4.41487,9.49162 -5.96927,10.27647 32.35282,-16.33583 11,-7.63883 24.5,-17.6947 30,-22.34638 14.25631,-12.05744 18.48588,-13.6417 7.99853,-2.99601 -0.36748,0.37303 -4.56748,5.17823 -9.33333,10.67823 -4.76587,5.5 -13.24453,14.8 -18.84149,20.66666 -5.59696,5.86667 -13.02804,14.26667 -16.51351,18.66667 -3.48546,4.4 -8.47702,10.2491 -11.09236,12.99801 -10.36898,10.89856 2.08006,7.93173 30.07703,-7.16789 5.70449,-3.07662 18.4718,-9.76086 28.3718,-14.85388 26.86908,-13.82272 29.31853,-14.45277 15.63212,-4.02094 -8.48119,6.46439 -20.93466,16.65028 -39.58599,32.37803 -5.65273,4.76667 -13.08624,10.61181 -16.51892,12.9892 -5.544,3.83967 -10.25206,10.06895 -8.7438,11.569 0.30246,0.3008 14.64992,-4.20152 31.88325,-10.00517 28.63998,-9.64506 35.55119,-12.16672 55.12947,-20.11486 9.30657,-3.77817 8.99867,-2.18529 -0.71795,3.71414 -4.62633,2.80886 -12.10292,7.52369 -16.61464,10.47737 -10.32558,6.75984 -30.8258,19.56673 -34.41458,21.49951 -36.95207,19.90073 -32.78288,23.05082 16.6177,12.55577 10.63334,-2.25903 24.43334,-5.00869 30.66667,-6.11036 6.23333,-1.10167 13.43333,-2.57828 16,-3.28137 5.86101,-1.60552 9.71297,-1.65286 8.75796,-0.1076 -0.40303,0.65209 -2.36761,1.59594 -4.36577,2.09745 -1.99816,0.50151 -6.05383,1.9958 -9.0126,3.32067 -2.95878,1.32485 -11.07959,4.61845 -18.04626,7.3191 -6.96666,2.70066 -13.86666,5.41232 -15.33333,6.02594 -1.46667,0.61362 -8.06667,3.35204 -14.66667,6.08538 -18.97321,7.85763 -31.33333,14.67468 -31.33333,17.28148 0,0.56192 22.35,0.67023 49.66667,0.24068 51.24542,-0.80581 52.54046,-0.6075 28.33333,4.33864 -7.33333,1.49839 -17.23333,3.6251 -22,4.72602 -8.84407,2.04265 -16.33395,3.73172 -38.55892,8.69552 -13.29205,2.96869 -14.77441,3.5013 -14.77441,5.30838 0,2.40283 47.81404,7.95461 70.50508,8.18648 27.78617,0.28395 32.82628,1.58029 14.16158,3.64248 -8.8,0.97227 -22.6,2.58559 -30.66666,3.58515 -8.06667,0.99954 -22.46667,2.50953 -32,3.3555 -9.53334,0.84598 -18.21296,2.02468 -19.28805,2.61935 -4.85898,2.68765 24.76151,11.93676 57.95471,18.09656 6.6,1.2248 18,3.62211 25.33334,5.32736 l 13.33333,3.10047 -51.00079,-0.26912 c -28.05044,-0.14802 -51.00043,0.20898 -50.99999,0.79332 8.9e-4,1.20753 32.54881,16.97652 40.66745,19.7028 2.93333,0.98502 5.99446,2.26552 6.80252,2.84556 1.93361,1.38797 16.18901,6.72821 35.19748,13.18541 16.94301,5.75555 14.20494,6.17369 -11.33334,1.73072 -5.86666,-1.02064 -20.86666,-3.62713 -33.33333,-5.79223 -12.46667,-2.16508 -27.46667,-4.30593 -33.33333,-4.75744 l -10.66667,-0.82092 3.33334,2.69794 c 8.01853,6.49004 11.15774,8.36365 31.76217,18.95706 11.96918,6.15376 22.76918,11.80427 24,12.55668 1.2308,0.75243 6.73782,3.87538 12.23782,6.9399 19.08579,10.63429 18.14607,11.24804 -5.33333,3.48328 -14.48077,-4.78887 -39.49957,-11.88206 -48,-13.60868 -35.53833,-7.21866 -35.35146,-6.53322 4.99652,18.328 5.13256,3.16253 20.13195,13.62502 40.67015,28.36857 8.65118,6.21033 10.23976,9.34537 2.66666,5.26265 -34.32878,-18.507 -71.34801,-32.14174 -87.26694,-32.14174 -4.05396,0 -3.38939,0.65906 8.94379,8.86977 18.08745,12.04156 45.04323,36.41662 56.85518,51.41193 l 4.46797,5.67209 -4.66666,-3.2323 c -2.56667,-1.77778 -7.96667,-5.70788 -12,-8.73358 -16.24855,-12.1892 -48.36119,-28.94413 -58.45625,-30.49985 -6.97106,-1.07429 -6.85915,-0.34976 1.25349,8.11515 12.92332,13.48449 34.15321,39.26892 42.45198,51.55936 1.05375,1.56058 3.45375,4.56518 5.33334,6.6769 3.23414,3.63356 3.25654,3.75619 0.41744,2.28643 -1.65,-0.85419 -3,-2.02585 -3,-2.60372 0,-0.57785 -3.15,-3.5504 -7,-6.60565 -3.85,-3.05526 -7.60049,-6.04535 -8.33443,-6.64466 -0.73394,-0.5993 -7.03394,-4.90804 -14,-9.57496 -6.96606,-4.66692 -17.16557,-11.8879 -22.66557,-16.04661 -13.88556,-10.49928 -24.68471,-15.37016 -18.20665,-8.21199 1.21366,1.34108 2.20665,3.05106 2.20665,3.79995 0,0.74889 1.91944,4.00165 4.26543,7.22835 2.34597,3.22669 7.43437,10.66672 11.30754,16.53338 3.87318,5.86667 7.50374,11.26667 8.06791,12 11.38387,14.79696 24.37424,38.96106 15.41092,28.66667 -21.83925,-25.0824 -47.64279,-46.66667 -55.78903,-46.66667 -1.53884,0 -7.17368,-1.52881 -12.52186,-3.39736 -12.30684,-4.29974 -13.60196,-3.32561 -2.48735,1.87088 13.24112,6.19072 25.33325,19.06503 29.52111,31.43067 6.91554,20.41985 -6.76814,47.9264 -17.96806,36.11885 -3.72474,-3.92684 -4.57234,-4.09204 -5.71514,-1.11393 -0.56068,1.46111 0.26213,3.20324 2.3615,5 2.69127,2.30331 3.46051,4.73431 4.66979,14.75756 3.17916,26.35086 5.52087,37.64988 10.22428,49.33333 8.8856,22.07219 24.01781,46.26931 42.01552,67.18483 5.92451,6.88498 11.93301,14.79428 13.35224,17.5762 1.41924,2.78192 3.151,5.41067 3.84839,5.84167 1.83409,1.13355 5.28712,8.43588 4.40578,9.31722 -1.22485,1.22484 -397.41748,0.84506 -398.17566,-0.38167 z m 199.79708,-17.04234 c 1.28211,-5.10832 9.14235,-16.97095 19.32328,-29.16258 30.32393,-36.31276 40.01973,-57.61894 41.09967,-90.3151 l 0.64896,-19.64843 -6.8654,-6.17258 c -9.6721,-8.69606 -13.62091,-15.99866 -14.48726,-26.79148 -0.6813,-8.48758 -4.30964,-9.66152 -4.30964,-1.39438 0,1.89696 -0.64618,2.29659 -2.67324,1.65323 -1.77666,-0.56389 -2.94245,-0.14685 -3.47597,1.24348 -0.96345,2.51069 -13.85079,3.06145 -13.85079,0.59193 0,-1.00837 -1.42024,-1.17252 -4.33333,-0.50081 -2.38333,0.54955 -7.33333,1.07455 -11,1.16667 -3.66667,0.0921 -7.37521,0.62726 -8.2412,1.18922 -0.866,0.56196 -1.95141,0.41196 -2.41203,-0.33333 -2.47614,-4.00649 -8.6801,0.84773 -8.6801,6.79168 v 3.95629 l -5.33334,-5.2803 c -2.93333,-2.90416 -5.33333,-5.92735 -5.33333,-6.71819 0,-0.79084 -0.979,-1.43789 -2.17556,-1.43789 -1.76851,0 -2.04171,0.99793 -1.46017,5.33364 0.84156,6.27421 -0.8572,5.91948 -3.01887,-0.63039 -3.36472,-10.19524 -10.60663,-9.63135 -10.66053,0.83008 -0.012,2.25999 -1.74011,5.25524 -4.79622,8.31135 -27.90117,27.90117 -17.68817,76.5783 27.21348,129.70474 4.89383,5.79025 11.87595,15.16037 15.51583,20.82248 7.30327,11.36081 8.02629,11.88843 9.30576,6.79067 z m 164.74294,-2.62546 c 0,-1.92184 -13.97525,-28.33232 -14.87649,-28.11365 -1.02513,0.24873 -3.76557,-4.4346 -10.66376,-18.22405 -4.40853,-8.81267 -13.62419,-35.5054 -15.86407,-45.94964 -0.81582,-3.80404 -2.0336,-6.91644 -2.70616,-6.91644 -1.6152,0 -1.5624,7.41792 0.0895,12.572 0.72179,2.25206 2.85012,9.49466 4.72964,16.09466 8.17077,28.6919 39.29137,84.56063 39.29137,70.53712 z M 709.39006,670.63352 c 21.89363,-4.0311 52.54465,-13.94679 60.86627,-19.69043 2.05901,-1.42115 7.27905,-4.85347 11.60008,-7.6274 99.3237,-63.7617 115.21465,-200.38985 32.79681,-281.98237 -7.77789,-7.7 -15.00673,-14.60897 -16.06409,-15.35326 -1.05736,-0.74431 -4.92248,-3.5248 -8.58915,-6.17887 -58.46069,-42.31612 -148.51469,-45.25013 -205.85893,-6.70704 -1.91092,1.2844 -5.10101,3.15252 -7.0891,4.15139 -30.63195,15.39024 -65.08578,65.51296 -75.67315,110.08778 -14.41631,60.69528 7.74468,133.08493 53.04776,173.28234 3.33751,2.96138 7.63647,6.88432 9.55325,8.71766 33.42452,31.96934 97.39981,50.13994 145.41025,41.3002 z"
           id="path529"
           sodipodi:nodetypes="sssssscssssssssssscsssssssssssssssssssssssssssssssssssssssssssssscsssssssssscssssssssssssssssssssssssssssssssssssssssssssssssssssssscssscssscssssssssssssssssssscsssssscssssssssssssssssssssscsssssssssssssssssssssscsssssssscsssssssssssscssssssssssssssssssssssssssssssssssscssssssssssscssssscsssssssssssssssssssssssss" /><path
           style="fill:#1c1e1f;stroke-width:1.33333"
           d="m 485.33332,891.28887 c 0,-6.52869 0.49871,-7.88613 4.33333,-11.79486 37.08567,-37.80248 55.87212,-70.2374 61.87487,-106.82736 3.24809,-19.79892 1.36071,-29.28303 -9.13463,-45.9012 -16.92697,-26.80197 9.11174,-68.0988 42.93804,-68.0988 34.69208,0 65.87736,42.90717 46.55451,64.05336 -27.12468,29.68421 -16.87064,78.3302 27.39997,129.98773 4.41865,5.15593 11.32284,14.30593 15.34267,20.33333 8.25744,12.38139 8.53881,12.56024 10.57426,6.72132 2.16503,-6.2106 8.87907,-16.25286 19.45075,-29.09272 31.92899,-38.77941 40.66623,-59.04992 40.66623,-94.3461 v -15.18665 l -7.18616,-6.56775 c -41.9898,-38.37632 22.12547,-100.06332 68.20355,-65.62044 13.54755,10.12664 22.85594,27.55876 21.19327,39.68927 -2.81735,20.55481 -13.67168,30.15037 -21.51321,19.01833 -1.78832,-2.53873 -2.29832,-2.68801 -3.3813,-0.98968 -2.13376,3.34623 -1.47732,6.1652 1.78142,7.64997 2.77588,1.26478 3.26413,2.84484 4.70122,15.21403 3.14194,27.04264 5.14198,36.4439 10.66646,50.13801 9.23877,22.90111 24.07942,46.00829 44.61152,69.46093 4.07498,4.65463 8.38405,10.35463 9.57572,12.66667 1.19166,2.31205 3.63234,6.24245 5.42374,8.73422 1.7914,2.49179 3.2571,5.34179 3.2571,6.33334 0,1.50681 -32.62007,1.80282 -198.66667,1.80282 H 485.33332 Z m 357.90543,-27.34894 c -3.56942,-7.44228 -7.63724,-14.33507 -9.0396,-15.31732 -1.49982,-1.05052 -2.2228,-2.63787 -1.75577,-3.85494 0.45601,-1.18833 0.14279,-1.93396 -0.73584,-1.75169 -3.31269,0.68716 -23.56699,-49.33587 -23.75481,-58.66841 -0.026,-1.29118 -0.90472,-3.84759 -1.95275,-5.68092 -2.37649,-4.15724 -2.93992,6.8183 -0.71383,13.90533 0.70739,2.25207 3.16739,10.39467 5.46668,18.09467 4.51278,15.1127 8.29286,23.79416 18.01832,41.38144 15.68735,28.36858 26.71907,37.43626 14.4676,11.89184 z"
           id="path527"
           sodipodi:nodetypes="ssssssssssscssssssssssssscsssssssssss" /></g><text
         xml:space="preserve"
         id="text1269"
         style="font-size:96px;line-height:1.25;font-family:'Times New Roman';-inkscape-font-specification:'Times New Roman, ';letter-spacing:28px;word-spacing:0px;white-space:pre;shape-inside:url(#rect1271);shape-padding:1.78223;fill:#1c1e1f;fill-opacity:1"
         x="27.464844"
         y="0"
         transform="translate(4.6417473,15.903902)"><tspan
           x="468.04083"
           y="1062.3718"
           id="tspan1693"><tspan
             style="font-family:'Modern Sans';-inkscape-font-specification:'Modern Sans, Normal';text-align:center;text-anchor:middle"
             id="tspan1691">LUNAR</tspan></tspan></text></g></g></svg>
